<?xml version="1.0" encoding="UTF-8" standalone="no"?>
<!-- Created with Inkscape (http://www.inkscape.org/) -->

<svg
   xmlns:dc="http://purl.org/dc/elements/1.1/"
   xmlns:cc="http://creativecommons.org/ns#"
   xmlns:rdf="http://www.w3.org/1999/02/22-rdf-syntax-ns#"
   xmlns:svg="http://www.w3.org/2000/svg"
   xmlns="http://www.w3.org/2000/svg"
   xmlns:sodipodi="http://sodipodi.sourceforge.net/DTD/sodipodi-0.dtd"
   xmlns:inkscape="http://www.inkscape.org/namespaces/inkscape"
   width="300px"
   height="300px"
   viewBox="0 0 300 300"
   version="1.1"
   id="SVGRoot"
   inkscape:version="0.92.4 (5da689c313, 2019-01-14)"
   sodipodi:docname="sean-mussack-initials-square-background.svg">
  <defs
     id="defs42" />
  <sodipodi:namedview
     id="base"
     pagecolor="#ffffff"
     bordercolor="#666666"
     borderopacity="1.0"
     inkscape:pageopacity="0.0"
     inkscape:pageshadow="2"
     inkscape:zoom="1.7066667"
     inkscape:cx="150"
     inkscape:cy="150"
     inkscape:document-units="px"
     inkscape:current-layer="layer1"
     showgrid="false"
     inkscape:window-width="1366"
     inkscape:window-height="705"
     inkscape:window-x="-8"
     inkscape:window-y="-8"
     inkscape:window-maximized="1" />
  <metadata
     id="metadata45">
    <rdf:RDF>
      <cc:Work
         rdf:about="">
        <dc:format>image/svg+xml</dc:format>
        <dc:type
           rdf:resource="http://purl.org/dc/dcmitype/StillImage" />
        <dc:title></dc:title>
      </cc:Work>
    </rdf:RDF>
  </metadata>
  <g
     inkscape:label="Layer 1"
     inkscape:groupmode="layer"
     id="layer1">
    <g
       transform="translate(10.546875,125.70312)"
       id="g70">
      <rect
         style="stroke-width:1.21427786"
         y="-125.70312"
         x="-10.546875"
         height="300"
         width="300"
         id="rect40" />
      <path
         inkscape:connector-curvature="0"
         id="path4567"
         d="m 69.453381,-40.70302 c -15.218529,0 -29.14745,2.836968 -40.929801,8.728149 C 16.741353,-26.083762 4.4534689,-15.287285 4.453215,1.477868 v 5.291e-4 c 0,16.7654499 12.288016,27.5620739 24.070365,33.4532549 11.782351,5.89117 25.711272,8.728667 40.929801,8.728667 8.273057,0 15.642349,1.574007 20.671607,3.455086 -5.29e-4,1.9e-4 -0.0011,2.56e-4 -0.0016,5.29e-4 -5.029224,1.880872 -12.397695,3.45612 -20.670057,3.45612 -8.264897,0 -15.627714,-1.572329 -20.656618,-3.450953 L 22.017517,76.782313 c 2.1324,1.43301 4.326742,2.696157 6.506063,3.785817 11.782351,5.891186 25.711272,8.728657 40.929801,8.728657 15.218531,0 29.14693,-2.837471 40.929279,-8.728657 11.78223,-5.891106 24.07012,-16.687588 24.07037,-33.452739 0,-16.765449 -12.28801,-27.562074 -24.07037,-33.453254 C 98.669317,7.8054656 84.834374,4.9680687 69.72003,4.9350222 h -0.266649 v -0.00159 c -8.273058,0 -15.642865,-1.5740062 -20.672124,-3.4550878 5.3e-4,-1.852e-4 0.0011,-2.646e-4 0.0016,-5.292e-4 5.029224,-1.88087262 12.398211,-3.4566357 20.670573,-3.4566357 8.224482,0 15.553152,1.55816299 20.580138,3.4245973 L 116.82672,-28.230914 c -2.11295,-1.415639 -4.28595,-2.664904 -6.44406,-3.743957 -11.782349,-5.891181 -25.710748,-8.728149 -40.929279,-8.728149 z"
         style="color:#000000;font-style:normal;font-variant:normal;font-weight:normal;font-stretch:normal;font-size:medium;line-height:normal;font-family:sans-serif;font-variant-ligatures:normal;font-variant-position:normal;font-variant-caps:normal;font-variant-numeric:normal;font-variant-alternates:normal;font-feature-settings:normal;text-indent:0;text-align:start;text-decoration:none;text-decoration-line:none;text-decoration-style:solid;text-decoration-color:#000000;letter-spacing:normal;word-spacing:normal;text-transform:none;writing-mode:lr-tb;direction:ltr;text-orientation:mixed;dominant-baseline:auto;baseline-shift:baseline;text-anchor:start;white-space:normal;shape-padding:0;clip-rule:nonzero;display:inline;overflow:visible;visibility:visible;opacity:1;isolation:auto;mix-blend-mode:normal;color-interpolation:sRGB;color-interpolation-filters:linearRGB;solid-color:#000000;solid-opacity:1;vector-effect:none;fill:#ff00ff;fill-opacity:1;fill-rule:nonzero;stroke:none;stroke-width:38.72479248;stroke-linecap:butt;stroke-linejoin:miter;stroke-miterlimit:4;stroke-dasharray:none;stroke-dashoffset:0;stroke-opacity:1;color-rendering:auto;image-rendering:auto;shape-rendering:auto;text-rendering:auto;enable-background:accumulate" />
      <path
         inkscape:connector-curvature="0"
         id="path9085"
         d="m 144.45321,-40.70302 v 29.84521 100.1546 h 39.99962 V 33.44697 l 25.00003,27.69082 25.00002,-27.69082 v -59.68989 l -25.00002,27.6903 -25.00003,-27.69082 -13.0545,-14.45958 z m 103.05469,0 -13.0545,14.45958 v 59.69041 55.84982 h 39.99963 v -100.1546 -29.84521 z"
         style="color:#000000;font-style:normal;font-variant:normal;font-weight:normal;font-stretch:normal;font-size:medium;line-height:normal;font-family:sans-serif;font-variant-ligatures:normal;font-variant-position:normal;font-variant-caps:normal;font-variant-numeric:normal;font-variant-alternates:normal;font-feature-settings:normal;text-indent:0;text-align:start;text-decoration:none;text-decoration-line:none;text-decoration-style:solid;text-decoration-color:#000000;letter-spacing:normal;word-spacing:normal;text-transform:none;writing-mode:lr-tb;direction:ltr;text-orientation:mixed;dominant-baseline:auto;baseline-shift:baseline;text-anchor:start;white-space:normal;shape-padding:0;clip-rule:nonzero;display:inline;overflow:visible;visibility:visible;opacity:1;isolation:auto;mix-blend-mode:normal;color-interpolation:sRGB;color-interpolation-filters:linearRGB;solid-color:#000000;solid-opacity:1;vector-effect:none;fill:#ff00ff;fill-opacity:1;fill-rule:nonzero;stroke:none;stroke-width:40;stroke-linecap:butt;stroke-linejoin:miter;stroke-miterlimit:4;stroke-dasharray:none;stroke-dashoffset:0;stroke-opacity:1;color-rendering:auto;image-rendering:auto;shape-rendering:auto;text-rendering:auto;enable-background:accumulate" />
    </g>
  </g>
</svg>
