<?xml version="1.0" encoding="UTF-8" standalone="no"?>
<!-- Created with Inkscape (http://www.inkscape.org/) -->

<svg
   xmlns:dc="http://purl.org/dc/elements/1.1/"
   xmlns:cc="http://creativecommons.org/ns#"
   xmlns:rdf="http://www.w3.org/1999/02/22-rdf-syntax-ns#"
   xmlns:svg="http://www.w3.org/2000/svg"
   xmlns="http://www.w3.org/2000/svg"
   xmlns:sodipodi="http://sodipodi.sourceforge.net/DTD/sodipodi-0.dtd"
   xmlns:inkscape="http://www.inkscape.org/namespaces/inkscape"
   width="270px"
   height="130px"
   viewBox="0 0 270 130"
   version="1.1"
   id="SVGRoot"
   inkscape:version="0.92.4 (5da689c313, 2019-01-14)"
   sodipodi:docname="sean-mussack-initials-final.svg">
  <defs
     id="defs9231" />
  <sodipodi:namedview
     id="base"
     pagecolor="#ffffff"
     bordercolor="#666666"
     borderopacity="1.0"
     inkscape:pageopacity="0.0"
     inkscape:pageshadow="2"
     inkscape:zoom="1.8962963"
     inkscape:cx="135"
     inkscape:cy="65"
     inkscape:document-units="px"
     inkscape:current-layer="layer1"
     showgrid="false"
     inkscape:window-width="1366"
     inkscape:window-height="705"
     inkscape:window-x="-8"
     inkscape:window-y="-8"
     inkscape:window-maximized="1" />
  <metadata
     id="metadata9234">
    <rdf:RDF>
      <cc:Work
         rdf:about="">
        <dc:format>image/svg+xml</dc:format>
        <dc:type
           rdf:resource="http://purl.org/dc/dcmitype/StillImage" />
        <dc:title></dc:title>
      </cc:Work>
    </rdf:RDF>
  </metadata>
  <g
     inkscape:label="Layer 1"
     inkscape:groupmode="layer"
     id="layer1">
    <g
       transform="translate(0,-166.99995)"
       id="g9151">
      <path
         inkscape:connector-curvature="0"
         transform="scale(0.26458333)"
         id="path4567"
         d="m 245.66992,631.18164 c -57.51885,0 -110.16359,10.7224 -154.695311,32.98828 C 46.443356,686.43553 9.5974061e-4,727.24111 0,790.60547 v 0.002 c 0,63.36548 46.442895,104.17162 90.974609,126.4375 44.531721,22.26584 97.176461,32.99024 154.695311,32.99024 31.26825,0 59.12069,5.949 78.12891,13.05859 -0.002,7.2e-4 -0.004,9.7e-4 -0.006,0.002 -19.00809,7.10881 -46.85743,13.0625 -78.12305,13.0625 -31.23741,0 -59.06538,-5.94266 -78.07226,-13.04297 L 66.384766,1075.2207 c 8.059462,5.4161 16.353038,10.1902 24.589843,14.3086 44.531721,22.2659 97.176461,32.9902 154.695311,32.9902 57.51886,0 110.16163,-10.7243 154.69336,-32.9902 44.53126,-22.2656 90.97365,-63.0712 90.97461,-126.43555 0,-63.36548 -46.44289,-104.17162 -90.97461,-126.4375 -44.27092,-22.13545 -96.56047,-32.85947 -153.68555,-32.98437 h -1.00781 v -0.006 c -31.26825,0 -59.12264,-5.949 -78.13086,-13.0586 0.002,-7e-4 0.004,-10e-4 0.006,-0.002 19.00809,-7.10881 46.85938,-13.06445 78.125,-13.06445 31.08466,0 58.78357,5.88912 77.7832,12.94336 L 424.71875,678.32031 c -7.98592,-5.35045 -16.19884,-10.07208 -24.35547,-14.15039 -44.53173,-22.26588 -97.1745,-32.98828 -154.69336,-32.98828 z"
         style="color:#000000;font-style:normal;font-variant:normal;font-weight:normal;font-stretch:normal;font-size:medium;line-height:normal;font-family:sans-serif;font-variant-ligatures:normal;font-variant-position:normal;font-variant-caps:normal;font-variant-numeric:normal;font-variant-alternates:normal;font-feature-settings:normal;text-indent:0;text-align:start;text-decoration:none;text-decoration-line:none;text-decoration-style:solid;text-decoration-color:#000000;letter-spacing:normal;word-spacing:normal;text-transform:none;writing-mode:lr-tb;direction:ltr;text-orientation:mixed;dominant-baseline:auto;baseline-shift:baseline;text-anchor:start;white-space:normal;shape-padding:0;clip-rule:nonzero;display:inline;overflow:visible;visibility:visible;opacity:1;isolation:auto;mix-blend-mode:normal;color-interpolation:sRGB;color-interpolation-filters:linearRGB;solid-color:#000000;solid-opacity:1;vector-effect:none;fill:#ff00ff;fill-opacity:1;fill-rule:nonzero;stroke:none;stroke-width:146.36141968;stroke-linecap:butt;stroke-linejoin:miter;stroke-miterlimit:4;stroke-dasharray:none;stroke-dashoffset:0;stroke-opacity:1;color-rendering:auto;image-rendering:auto;shape-rendering:auto;text-rendering:auto;enable-background:accumulate" />
      <path
         inkscape:connector-curvature="0"
         id="path9085"
         d="m 140,167.00014 v 29.84521 100.1546 h 39.99962 v -55.84982 l 25.00003,27.69082 25.00002,-27.69082 v -59.68989 l -25.00002,27.6903 -25.00003,-27.69082 -13.0545,-14.45958 z m 103.05469,0 -13.0545,14.45958 v 59.69041 55.84982 h 39.99963 v -100.1546 -29.84521 z"
         style="color:#000000;font-style:normal;font-variant:normal;font-weight:normal;font-stretch:normal;font-size:medium;line-height:normal;font-family:sans-serif;font-variant-ligatures:normal;font-variant-position:normal;font-variant-caps:normal;font-variant-numeric:normal;font-variant-alternates:normal;font-feature-settings:normal;text-indent:0;text-align:start;text-decoration:none;text-decoration-line:none;text-decoration-style:solid;text-decoration-color:#000000;letter-spacing:normal;word-spacing:normal;text-transform:none;writing-mode:lr-tb;direction:ltr;text-orientation:mixed;dominant-baseline:auto;baseline-shift:baseline;text-anchor:start;white-space:normal;shape-padding:0;clip-rule:nonzero;display:inline;overflow:visible;visibility:visible;opacity:1;isolation:auto;mix-blend-mode:normal;color-interpolation:sRGB;color-interpolation-filters:linearRGB;solid-color:#000000;solid-opacity:1;vector-effect:none;fill:#ff00ff;fill-opacity:1;fill-rule:nonzero;stroke:none;stroke-width:40;stroke-linecap:butt;stroke-linejoin:miter;stroke-miterlimit:4;stroke-dasharray:none;stroke-dashoffset:0;stroke-opacity:1;color-rendering:auto;image-rendering:auto;shape-rendering:auto;text-rendering:auto;enable-background:accumulate" />
    </g>
  </g>
</svg>
